<svg xmlns="http://www.w3.org/2000/svg" viewBox="0 0 58.5 76.09"><defs><style>.cls-1{fill:#f26101;}</style></defs><g id="Layer_2" data-name="Layer 2"><g id="Layer_1-2" data-name="Layer 1"><path class="cls-1" d="M17.38,39.09a12,12,0,0,1,4.55-4.79,12.6,12.6,0,0,1,6.49-1.7A12.11,12.11,0,0,1,34.21,34,10.39,10.39,0,0,1,38.3,37.8V5.05a2.24,2.24,0,0,1,2.24-2.24h0a2.24,2.24,0,0,1,2.24,2.24V57.46a2.25,2.25,0,0,1-2.24,2.24h0a2.24,2.24,0,0,1-2.24-2.24V54.68a10.37,10.37,0,0,1-3.89,3.92,11.6,11.6,0,0,1-6,1.53,12.13,12.13,0,0,1-11-6.66,15.34,15.34,0,0,1-1.65-7.2A15,15,0,0,1,17.38,39.09ZM38.3,37.8V4.65a2.24,2.24,0,0,1,2.24-2.24h0a2.24,2.24,0,0,1,2.24,2.24M38.3,37.4V4.25A2.24,2.24,0,0,1,40.54,2h0a2.24,2.24,0,0,1,2.24,2.24M38.3,37V3.84a2.23,2.23,0,0,1,2.24-2.23h0a2.24,2.24,0,0,1,2.24,2.23M38.3,36.6V3.44A2.24,2.24,0,0,1,40.54,1.2h0a2.25,2.25,0,0,1,2.24,2.24M38.3,36.2V3A2.24,2.24,0,0,1,40.54.8h0A2.25,2.25,0,0,1,42.78,3M38.3,35.8V2.64A2.24,2.24,0,0,1,40.54.4h0a2.24,2.24,0,0,1,2.24,2.24M38.3,35.39V2.24A2.24,2.24,0,0,1,40.54,0h0a2.24,2.24,0,0,1,2.24,2.24V57.29m-5.7-16.23a8.61,8.61,0,0,0-3.28-3.43,9.3,9.3,0,0,0-9.07,0A8.39,8.39,0,0,0,21.47,41a10.83,10.83,0,0,0-1.22,5.25,11.13,11.13,0,0,0,1.22,5.33,8.62,8.62,0,0,0,3.26,3.45,8.85,8.85,0,0,0,4.52,1.19,9,9,0,0,0,4.55-1.19,8.6,8.6,0,0,0,3.28-3.45,11,11,0,0,0,1.22-5.28A10.9,10.9,0,0,0,37.08,41.06Z"/><path class="cls-1" d="M54.66,31a29.71,29.71,0,0,0-2.21-3.34,3.29,3.29,0,0,0-5.9,2v1.25a3.27,3.27,0,0,0,.52,1.77c.3.47.59.95.86,1.46a25.48,25.48,0,0,1,2.8,12.24,25.51,25.51,0,0,1-2.8,12.2,19.94,19.94,0,0,1-7.69,8.11,21.4,21.4,0,0,1-11,2.84,21.4,21.4,0,0,1-11-2.84,19.94,19.94,0,0,1-7.69-8.11,25.51,25.51,0,0,1-2.8-12.2,25.48,25.48,0,0,1,2.8-12.24A20.26,20.26,0,0,1,18.22,26a21.44,21.44,0,0,1,11-2.84c.5,0,1,0,1.48.05A3.31,3.31,0,0,0,34.26,20v0a3.28,3.28,0,0,0-3.07-3.28c-.64,0-1.29-.05-1.94-.05a29.45,29.45,0,0,0-14.79,3.8A27.86,27.86,0,0,0,3.89,31,30.28,30.28,0,0,0,0,46.33,30.3,30.3,0,0,0,3.89,61.67,27.77,27.77,0,0,0,14.46,72.28a29.36,29.36,0,0,0,14.79,3.81,29.53,29.53,0,0,0,14.88-3.81A27.7,27.7,0,0,0,54.66,61.71,30.61,30.61,0,0,0,58.5,46.33,30.64,30.64,0,0,0,54.66,31Z"/></g></g></svg>